<svg width="26" height="38" viewBox="0 0 26 38" fill="none" xmlns="http://www.w3.org/2000/svg">
<path fill-rule="evenodd" clip-rule="evenodd" d="M12.9998 35.5997C12.0732 35.5997 12.0732 34.1973 12.9998 34.1973C18.3989 34.1973 22.1838 30.3311 22.1838 24.968C22.1838 24.0451 23.5917 24.0451 23.5917 24.968C23.5917 31.0978 19.173 35.5997 12.9998 35.5997ZM12.9998 38C20.3913 38 26 32.5486 26 24.9678C26 18.1125 17.79 6.38182 13.4109 0.2128C13.2096 -0.0709334 12.7921 -0.0709334 12.5908 0.2128C8.20832 6.37973 0 18.1108 0 24.9678C0 32.5486 5.60828 38 12.9998 38Z" fill="#1680C2"/>
</svg>
